<?xml version="1.0" standalone="no"?>
<!DOCTYPE svg PUBLIC "-//W3C//DTD SVG 20010904//EN"
 "http://www.w3.org/TR/2001/REC-SVG-20010904/DTD/svg10.dtd">
<svg version="1.0" xmlns="http://www.w3.org/2000/svg"
 width="512.000000pt" height="512.000000pt" viewBox="0 0 512.000000 512.000000"
 preserveAspectRatio="xMidYMid meet">
<metadata>
Created by potrace 1.11, written by Peter Selinger 2001-2013
</metadata>
<g transform="translate(0.000000,512.000000) scale(0.100000,-0.100000)"
fill="#000000" stroke="none">
<path d="M3347 4312 c-9 -10 -17 -30 -17 -44 0 -24 -36 -68 -56 -68 -6 0 -45
-36 -87 -79 -53 -54 -75 -84 -71 -95 8 -20 -84 -146 -106 -146 -14 0 -56 -64
-53 -80 15 -87 8 -120 -26 -120 -14 0 -18 -5 -14 -20 4 -14 -2 -23 -20 -31
-18 -8 -32 -29 -47 -72 -12 -33 -33 -70 -46 -82 -13 -12 -24 -27 -24 -32 0 -6
-16 -30 -35 -55 -19 -25 -40 -68 -46 -94 -9 -35 -32 -73 -81 -134 -60 -76 -83
-120 -95 -185 -4 -24 -37 -74 -86 -133 -20 -23 -34 -48 -31 -55 2 -7 -7 -25
-21 -41 -14 -16 -25 -34 -25 -40 0 -31 -23 -85 -48 -113 -16 -18 -44 -66 -62
-107 -30 -67 -37 -75 -67 -81 -20 -3 -33 -12 -33 -21 0 -8 -14 -42 -30 -75
-17 -33 -28 -64 -25 -69 3 -6 -5 -15 -19 -21 -19 -9 -28 -26 -41 -77 -17 -70
-31 -96 -46 -86 -5 3 -9 1 -9 -5 0 -10 -9 -31 -78 -181 -16 -36 -46 -81 -66
-99 -20 -20 -45 -58 -56 -89 -11 -29 -39 -80 -61 -113 -22 -33 -45 -73 -51
-89 -5 -17 -14 -30 -19 -30 -5 0 -7 -14 -5 -30 4 -32 -11 -56 -66 -116 -16
-18 -34 -51 -39 -75 -6 -24 -21 -56 -35 -70 -14 -15 -36 -60 -49 -100 -21 -65
-22 -75 -9 -86 12 -9 13 -19 6 -45 -13 -47 11 -101 54 -120 31 -14 36 -13 126
28 51 24 101 44 111 44 70 0 125 64 163 187 12 40 36 92 52 115 16 24 38 57
48 75 11 18 36 56 57 85 20 30 39 63 41 74 13 67 71 203 98 231 23 24 28 35
20 45 -8 10 -2 23 25 53 20 22 39 39 44 38 4 -2 11 34 15 78 6 72 11 86 41
122 18 23 58 80 89 126 41 62 54 90 50 107 -5 18 1 28 24 46 39 28 100 137
100 176 0 16 6 35 14 41 7 6 16 25 20 43 3 17 30 61 60 97 49 60 107 157 112
188 1 7 14 24 28 38 25 25 30 37 27 63 -1 7 14 32 34 56 19 24 35 54 35 68 0
27 31 62 45 51 5 -5 3 0 -4 10 -15 19 -3 42 27 52 10 2 34 41 56 85 22 47 57
98 82 123 l43 42 6 95 c6 91 7 96 38 123 18 15 38 25 45 22 16 -6 62 88 62
128 0 19 11 39 36 62 20 19 33 38 30 43 -3 6 8 20 25 33 17 13 46 39 64 58 31
32 32 36 19 57 -13 19 -13 33 0 110 l16 88 -24 30 c-41 54 -66 76 -84 76 -9 0
-26 3 -37 6 -13 3 -27 -2 -38 -14z"/>
<path d="M969 3258 c0 -7 -2 -20 -4 -28 -2 -8 -6 -31 -10 -50 -3 -19 -7 -35
-8 -36 -1 -1 -23 2 -50 7 -58 10 -97 -2 -97 -31 0 -12 -6 -28 -14 -36 -9 -8
-13 -29 -11 -53 3 -37 1 -40 -26 -46 -16 -4 -32 -7 -36 -7 -35 0 -136 -113
-179 -198 -19 -38 -31 -50 -50 -51 -13 -1 -33 -3 -44 -4 -11 -1 -30 -3 -43 -4
-25 -1 -28 -7 -68 -102 -19 -44 -40 -70 -99 -121 -73 -64 -76 -67 -97 -145
-13 -43 -23 -85 -23 -92 0 -7 28 -52 63 -101 57 -82 65 -89 96 -90 50 0 248
-130 282 -185 14 -22 43 -49 64 -60 32 -17 41 -29 49 -60 5 -22 16 -46 25 -52
26 -20 117 -71 249 -140 131 -68 169 -76 234 -49 44 19 50 26 82 112 l27 71
-36 75 c-19 42 -35 83 -35 91 0 21 -12 27 -67 33 -124 13 -113 7 -147 89 -17
42 -31 61 -47 67 -13 4 -49 14 -80 23 -39 11 -82 36 -145 84 -50 38 -112 82
-139 98 -35 21 -49 35 -51 53 -9 106 -14 93 71 182 79 82 81 83 180 116 55 18
115 35 133 38 31 6 32 8 32 56 l0 49 75 34 c65 29 82 33 130 29 60 -6 58 -8
57 55 -1 50 10 64 67 86 30 11 51 26 51 34 0 9 -11 45 -25 81 -22 57 -33 71
-85 108 -32 24 -67 45 -77 47 -10 2 -51 11 -91 19 -88 19 -82 19 -83 4z"/>
<path d="M3899 3208 c-31 -17 -39 -30 -63 -102 l-27 -81 31 -67 c16 -37 30
-74 30 -82 0 -30 29 -43 107 -50 l79 -7 31 -69 31 -68 79 -24 c62 -19 99 -40
178 -99 55 -41 117 -83 138 -94 27 -14 37 -26 38 -45 0 -14 2 -43 5 -65 5 -39
2 -43 -72 -117 -65 -66 -87 -81 -153 -106 -42 -16 -101 -35 -133 -42 l-56 -13
-7 -51 -6 -51 -71 -33 c-63 -29 -76 -32 -130 -26 -54 6 -59 5 -58 -12 1 -11 2
-38 1 -62 -1 -42 -2 -43 -58 -67 -31 -14 -59 -27 -61 -29 -2 -2 11 -39 28 -82
28 -72 36 -83 90 -122 32 -24 69 -45 82 -48 65 -14 163 -32 164 -31 1 1 5 31
8 67 4 35 8 65 9 66 1 1 25 -2 52 -7 64 -12 105 3 105 37 0 13 5 24 10 24 6 0
10 22 10 49 l0 49 50 12 c42 10 59 22 104 72 30 33 67 85 82 115 32 62 28 60
108 67 33 3 60 7 61 8 1 2 16 36 34 77 24 55 46 86 83 120 28 25 61 55 73 66
21 19 81 184 74 202 -2 4 -33 47 -68 96 -58 78 -68 87 -97 87 -48 0 -244 131
-276 185 -15 25 -40 48 -66 60 -35 17 -42 26 -48 58 -5 34 -14 44 -73 81 -36
24 -124 73 -195 109 -144 75 -190 83 -257 45z"/>
</g>
</svg>
